<svg width="256" height="256" viewBox="0 0 256 256" fill="none" xmlns="http://www.w3.org/2000/svg">
<path fill-rule="evenodd" clip-rule="evenodd" d="M184 16H72V24H56V32H48V40H40V48H32V56H24V72H16V184H24V200H32V208H40V216H48V224H56V232H72V240H184V232H200V224H208V216H216V208H224V200H232V184H240V72H232V56H224V48H216V40H208V32H200V24H184V16ZM184 24V32H200V40H208V48H216V56H224V72H232V184H224V200H216V208H208V216H200V224H184V232H72V224H56V216H48V208H40V200H32V184H24V72H32V56H40V48H48V40H56V32H72V24H184Z" fill="#451834"/>
<path fill-rule="evenodd" clip-rule="evenodd" d="M72 24H88V32H80V40H64V48H56V56H48V72H40V184H48V200H56V208H64V216H80V224H88V232H72V224H56V216H48V208H40V200H32V184H24V72H32V56H40V48H48V40H56V32H72V24ZM160 40H176V48H192V56H200V64H208V72V80H216V176H208V192H200V200H192V208H176V216H160V208H168V200H176V192H184V184H192V168H200V88H192V72H184V64H176V56H168V48H160V40ZM120 96H112V88H104V80H80V176H104V136H112V144H120V152H136V144H144V136H152V176H176V80H152V88H144V96H136V104H128H120V96Z" fill="#A1472A"/>
<path fill-rule="evenodd" clip-rule="evenodd" d="M184 24H88V32H80V40H64V48H56V56H48V72H40V80V88V168V174V184H48V200H56V208H64V216H80V224H88V232H184V224H200V216H208V208H216V200H224V184H232V72H224V56H216V48H208V40H200V32H184V24ZM56 168H64V184H72V192H80V200H88V208H104V216H176V208H192V200H200V192H208V176H216V80H208V64H200V56H192V48H176V40H104V48H88V56H80V64H72V72H64V88H56V168Z" fill="#FFE84F"/>
<path fill-rule="evenodd" clip-rule="evenodd" d="M160 40H104V48H88V56H80V64H72V72H64V88H56V168H64V184H72V192H80V200H88V208H104V216H160V208H168V200H176V192H184V184H192V168H200V88H192V72H184V64H176V56H168V48H160V40ZM176 80H168H160H152V88H144V96H136V104H120V96H112V88H104V80H88H80V176H104V163V152V136H112V144H120V152H136V144H144V136H152V152V163V176H176V80Z" fill="#E39400"/>
</svg>
