<svg width="32" height="32" viewBox="0 0 32 32" fill="none" xmlns="http://www.w3.org/2000/svg">
<path d="M12.8 4.26666C16.2133 4.26666 20.0533 4.26666 23.4667 4.26666V2.13333C18.56 2.13333 13.44 2.13333 8.53333 2.13333V4.26666C9.59999 4.26666 11.7333 4.26666 12.8 4.26666Z" fill="#451834"/>
<path d="M8.53333 4.26666H6.39999V6.4H8.53333V4.26666Z" fill="#451834"/>
<path d="M10.6667 4.26666H8.53333V6.4H10.6667V4.26666Z" fill="#A1472A"/>
<path d="M19.2 4.26666C16.4267 4.26666 13.44 4.26666 10.6667 4.26666V6.4C14.72 6.4 19.4133 6.4 23.4667 6.4V4.26666C22.4 4.26666 20.2667 4.26666 19.2 4.26666Z" fill="#FFE84F"/>
<path d="M25.6 4.26666H23.4667V6.4H25.6V4.26666Z" fill="#451834"/>
<path d="M6.4 6.39999H4.26666V8.53333H6.4V6.39999Z" fill="#451834"/>
<path d="M8.53333 6.39999H6.39999V8.53333H8.53333V6.39999Z" fill="#A1472A"/>
<path d="M10.6667 6.39999H8.53333V8.53333H10.6667V6.39999Z" fill="#FFE84F"/>
<path d="M23.4667 6.39999H21.3333V8.53333H23.4667V6.39999Z" fill="#A1472A"/>
<path d="M25.6 6.39999H23.4667V8.53333H25.6V6.39999Z" fill="#FFE84F"/>
<path d="M27.7333 6.39999H25.6V8.53333H27.7333V6.39999Z" fill="#451834"/>
<path d="M23.4667 10.6667C23.4667 14.72 23.4667 19.4133 23.4667 23.4667H25.6C25.6 18.56 25.6 13.44 25.6 8.53333H23.4667V10.6667Z" fill="#A1472A"/>
<path d="M27.7333 8.53333C27.7333 13.44 27.7333 18.56 27.7333 23.4667H29.8667C29.8667 18.56 29.8667 13.44 29.8667 8.53333H27.7333Z" fill="#451834"/>
<path d="M21.3333 17.0667C21.3333 15.1467 21.3333 12.5867 21.3333 10.6667C20.2667 10.6667 18.1333 10.6667 17.0667 10.6667V12.8H14.9333V10.6667C13.8667 10.6667 11.7333 10.6667 10.6667 10.6667C10.6667 14.08 10.6667 17.92 10.6667 21.3333H12.8C12.8 20.2667 12.8 18.1333 12.8 17.0667H14.9333V19.2H17.0667V17.0667H19.2C19.2 18.1333 19.2 20.2667 19.2 21.3333H21.3333C21.3333 20.2667 21.3333 18.1333 21.3333 17.0667Z" fill="#A1472A"/>
<path d="M4.26666 19.2C4.26666 15.7867 4.26666 11.9467 4.26666 8.53333H2.13333C2.13333 13.44 2.13333 18.56 2.13333 23.4667H4.26666C4.26666 22.4 4.26666 20.2667 4.26666 19.2Z" fill="#451834"/>
<path d="M8.53333 19.2C8.53333 15.7867 8.53333 11.9467 8.53333 8.53333H6.39999C6.39999 13.44 6.39999 18.56 6.39999 23.4667H8.53333C8.53333 22.4 8.53333 20.2667 8.53333 19.2Z" fill="#FFE84F"/>
<path d="M23.4667 19.2C23.4667 15.7867 23.4667 11.9467 23.4667 8.53333H21.3333V6.39999C17.92 6.39999 14.08 6.39999 10.6667 6.39999V8.53333H8.53333C8.53333 13.44 8.53333 18.56 8.53333 23.4667H10.6667V25.6C14.08 25.6 17.92 25.6 21.3333 25.6V23.4667H23.4667C23.4667 22.4 23.4667 20.2667 23.4667 19.2ZM19.2 21.3333C19.2 20.2667 19.2 18.1333 19.2 17.0667H17.0667V19.2H14.9333V17.0667H12.8C12.8 18.1333 12.8 20.2667 12.8 21.3333H10.6667C10.6667 17.92 10.6667 14.08 10.6667 10.6667C11.7333 10.6667 13.8667 10.6667 14.9333 10.6667V12.8H17.0667V10.6667C18.1333 10.6667 20.2667 10.6667 21.3333 10.6667C21.3333 14.08 21.3333 17.92 21.3333 21.3333H19.2Z" fill="#E39400"/>
<path d="M27.7333 19.2C27.7333 15.7867 27.7333 11.9467 27.7333 8.53333H25.6C25.6 13.44 25.6 18.56 25.6 23.4667H27.7333C27.7333 22.4 27.7333 20.2667 27.7333 19.2Z" fill="#FFE84F"/>
<path d="M6.4 21.3333C6.4 17.28 6.4 12.5867 6.4 8.53333H4.26666C4.26666 13.44 4.26666 18.56 4.26666 23.4667H6.4V21.3333Z" fill="#A1472A"/>
<path d="M6.4 23.4667H4.26666V25.6H6.4V23.4667Z" fill="#451834"/>
<path d="M8.53333 23.4667H6.39999V25.6H8.53333V23.4667Z" fill="#A1472A"/>
<path d="M10.6667 23.4667H8.53333V25.6H10.6667V23.4667Z" fill="#FFE84F"/>
<path d="M23.4667 23.4667H21.3333V25.6H23.4667V23.4667Z" fill="#A1472A"/>
<path d="M25.6 23.4667H23.4667V25.6H25.6V23.4667Z" fill="#FFE84F"/>
<path d="M27.7333 23.4667H25.6V25.6H27.7333V23.4667Z" fill="#451834"/>
<path d="M8.53333 25.6H6.39999V27.7333H8.53333V25.6Z" fill="#451834"/>
<path d="M10.6667 25.6H8.53333V27.7333H10.6667V25.6Z" fill="#A1472A"/>
<path d="M21.3333 25.6C17.92 25.6 14.08 25.6 10.6667 25.6V27.7333C14.72 27.7333 19.4133 27.7333 23.4667 27.7333V25.6H21.3333Z" fill="#FFE84F"/>
<path d="M25.6 25.6H23.4667V27.7333H25.6V25.6Z" fill="#451834"/>
<path d="M19.2 27.7333C15.7867 27.7333 11.9467 27.7333 8.53333 27.7333V29.8667C13.44 29.8667 18.56 29.8667 23.4667 29.8667V27.7333C22.4 27.7333 20.2667 27.7333 19.2 27.7333Z" fill="#451834"/>
</svg>
