<svg width="24" height="24" viewBox="0 0 24 24" fill="none" xmlns="http://www.w3.org/2000/svg">
<path d="M9.60001 3.20001C12.16 3.20001 15.04 3.20001 17.6 3.20001V1.60001C13.92 1.60001 10.08 1.60001 6.40001 1.60001V3.20001C7.20001 3.20001 8.80001 3.20001 9.60001 3.20001Z" fill="#451834"/>
<path d="M6.4 3.20001H4.8V4.80001H6.4V3.20001Z" fill="#451834"/>
<path d="M8.00001 3.20001H6.40001V4.80001H8.00001V3.20001Z" fill="#A1472A"/>
<path d="M14.4 3.20001C12.32 3.20001 10.08 3.20001 8.00001 3.20001V4.80001C11.04 4.80001 14.56 4.80001 17.6 4.80001V3.20001C16.8 3.20001 15.2 3.20001 14.4 3.20001Z" fill="#FFE84F"/>
<path d="M19.2 3.20001H17.6V4.80001H19.2V3.20001Z" fill="#451834"/>
<path d="M4.80001 4.8H3.20001V6.4H4.80001V4.8Z" fill="#451834"/>
<path d="M6.4 4.8H4.8V6.4H6.4V4.8Z" fill="#A1472A"/>
<path d="M8.00001 4.8H6.40001V6.4H8.00001V4.8Z" fill="#FFE84F"/>
<path d="M17.6 4.8H16V6.4H17.6V4.8Z" fill="#A1472A"/>
<path d="M19.2 4.8H17.6V6.4H19.2V4.8Z" fill="#FFE84F"/>
<path d="M20.8 4.8H19.2V6.4H20.8V4.8Z" fill="#451834"/>
<path d="M17.6 8.00001C17.6 11.04 17.6 14.56 17.6 17.6H19.2C19.2 13.92 19.2 10.08 19.2 6.40001H17.6V8.00001Z" fill="#A1472A"/>
<path d="M20.8 6.40001C20.8 10.08 20.8 13.92 20.8 17.6H22.4C22.4 13.92 22.4 10.08 22.4 6.40001H20.8Z" fill="#451834"/>
<path d="M16 12.8C16 11.36 16 9.44 16 8C15.2 8 13.6 8 12.8 8V9.6H11.2V8C10.4 8 8.80001 8 8.00001 8C8.00001 10.56 8.00001 13.44 8.00001 16H9.60001C9.60001 15.2 9.60001 13.6 9.60001 12.8H11.2V14.4H12.8V12.8H14.4C14.4 13.6 14.4 15.2 14.4 16H16C16 15.2 16 13.6 16 12.8Z" fill="#A1472A"/>
<path d="M3.20001 14.4C3.20001 11.84 3.20001 8.96001 3.20001 6.40001H1.60001C1.60001 10.08 1.60001 13.92 1.60001 17.6H3.20001C3.20001 16.8 3.20001 15.2 3.20001 14.4Z" fill="#451834"/>
<path d="M6.4 14.4C6.4 11.84 6.4 8.96001 6.4 6.40001H4.8C4.8 10.08 4.8 13.92 4.8 17.6H6.4C6.4 16.8 6.4 15.2 6.4 14.4Z" fill="#FFE84F"/>
<path d="M17.6 14.4C17.6 11.84 17.6 8.96 17.6 6.4H16V4.8C13.44 4.8 10.56 4.8 8.00001 4.8V6.4H6.40001C6.40001 10.08 6.40001 13.92 6.40001 17.6H8.00001V19.2C10.56 19.2 13.44 19.2 16 19.2V17.6H17.6C17.6 16.8 17.6 15.2 17.6 14.4ZM14.4 16C14.4 15.2 14.4 13.6 14.4 12.8H12.8V14.4H11.2V12.8H9.60001C9.60001 13.6 9.60001 15.2 9.60001 16H8.00001C8.00001 13.44 8.00001 10.56 8.00001 8C8.80001 8 10.4 8 11.2 8V9.6H12.8V8C13.6 8 15.2 8 16 8C16 10.56 16 13.44 16 16H14.4Z" fill="#E39400"/>
<path d="M20.8 14.4C20.8 11.84 20.8 8.96001 20.8 6.40001H19.2C19.2 10.08 19.2 13.92 19.2 17.6H20.8C20.8 16.8 20.8 15.2 20.8 14.4Z" fill="#FFE84F"/>
<path d="M4.80001 16C4.80001 12.96 4.80001 9.44001 4.80001 6.40001H3.20001C3.20001 10.08 3.20001 13.92 3.20001 17.6H4.80001V16Z" fill="#A1472A"/>
<path d="M4.80001 17.6H3.20001V19.2H4.80001V17.6Z" fill="#451834"/>
<path d="M6.4 17.6H4.8V19.2H6.4V17.6Z" fill="#A1472A"/>
<path d="M8.00001 17.6H6.40001V19.2H8.00001V17.6Z" fill="#FFE84F"/>
<path d="M17.6 17.6H16V19.2H17.6V17.6Z" fill="#A1472A"/>
<path d="M19.2 17.6H17.6V19.2H19.2V17.6Z" fill="#FFE84F"/>
<path d="M20.8 17.6H19.2V19.2H20.8V17.6Z" fill="#451834"/>
<path d="M6.4 19.2H4.8V20.8H6.4V19.2Z" fill="#451834"/>
<path d="M8.00001 19.2H6.40001V20.8H8.00001V19.2Z" fill="#A1472A"/>
<path d="M16 19.2C13.44 19.2 10.56 19.2 8.00001 19.2V20.8C11.04 20.8 14.56 20.8 17.6 20.8V19.2H16Z" fill="#FFE84F"/>
<path d="M19.2 19.2H17.6V20.8H19.2V19.2Z" fill="#451834"/>
<path d="M14.4 20.8C11.84 20.8 8.96001 20.8 6.40001 20.8V22.4C10.08 22.4 13.92 22.4 17.6 22.4V20.8C16.8 20.8 15.2 20.8 14.4 20.8Z" fill="#451834"/>
</svg>
